<svg width="50" height="50" viewBox="0 0 50 50" fill="none" xmlns="http://www.w3.org/2000/svg">
<path d="M16.6667 43.75C17.7717 43.75 18.8315 43.311 19.6129 42.5296C20.3943 41.7482 20.8333 40.6884 20.8333 39.5833V27.0833C20.8333 25.9783 20.3943 24.9185 19.6129 24.1371C18.8315 23.3557 17.7717 22.9167 16.6667 22.9167C16.1141 22.9167 15.5842 22.6972 15.1935 22.3065C14.8028 21.9158 14.5833 21.3859 14.5833 20.8333V18.75C14.5833 17.6449 15.0223 16.5851 15.8037 15.8037C16.5851 15.0223 17.6449 14.5833 18.75 14.5833C19.3025 14.5833 19.8324 14.3638 20.2231 13.9731C20.6138 13.5824 20.8333 13.0525 20.8333 12.5V8.33333C20.8333 7.7808 20.6138 7.25089 20.2231 6.86019C19.8324 6.46949 19.3025 6.25 18.75 6.25C15.4348 6.25 12.2554 7.56696 9.91116 9.91116C7.56696 12.2554 6.25 15.4348 6.25 18.75V39.5833C6.25 40.6884 6.68899 41.7482 7.47039 42.5296C8.25179 43.311 9.3116 43.75 10.4167 43.75H16.6667Z" fill="#FAFAFA"/>
<path d="M39.5833 43.75C40.6884 43.75 41.7482 43.311 42.5296 42.5296C43.311 41.7482 43.75 40.6884 43.75 39.5833V27.0833C43.75 25.9783 43.311 24.9185 42.5296 24.1371C41.7482 23.3557 40.6884 22.9167 39.5833 22.9167C39.0308 22.9167 38.5009 22.6972 38.1102 22.3065C37.7195 21.9158 37.5 21.3859 37.5 20.8333V18.75C37.5 17.6449 37.939 16.5851 38.7204 15.8037C39.5018 15.0223 40.5616 14.5833 41.6667 14.5833C42.2192 14.5833 42.7491 14.3638 43.1398 13.9731C43.5305 13.5824 43.75 13.0525 43.75 12.5V8.33333C43.75 7.7808 43.5305 7.25089 43.1398 6.86019C42.7491 6.46949 42.2192 6.25 41.6667 6.25C38.3515 6.25 35.172 7.56696 32.8278 9.91116C30.4836 12.2554 29.1667 15.4348 29.1667 18.75V39.5833C29.1667 40.6884 29.6057 41.7482 30.3871 42.5296C31.1685 43.311 32.2283 43.75 33.3333 43.75H39.5833Z" fill="#FAFAFA"/>
</svg>
