<svg width="277" height="189" viewBox="0 0 277 189" fill="none" xmlns="http://www.w3.org/2000/svg">
<g clip-path="url(#paint0_diamond_125_1092_clip_path)" data-figma-skip-parse="true"><g transform="matrix(-0.179184 -0.1995 0.29861 -0.249761 179.184 189)"><rect x="0" y="0" width="1012" height="540.705" fill="url(#paint0_diamond_125_1092)" opacity="1" shape-rendering="crispEdges"/><rect x="0" y="0" width="1012" height="540.705" transform="scale(1 -1)" fill="url(#paint0_diamond_125_1092)" opacity="1" shape-rendering="crispEdges"/><rect x="0" y="0" width="1012" height="540.705" transform="scale(-1 1)" fill="url(#paint0_diamond_125_1092)" opacity="1" shape-rendering="crispEdges"/><rect x="0" y="0" width="1012" height="540.705" transform="scale(-1)" fill="url(#paint0_diamond_125_1092)" opacity="1" shape-rendering="crispEdges"/></g></g><path d="M160 40.0001C160 167 13.1369 65.4956 0 110.292V189H277V0.00012207C255.043 65.8044 160 40.0001 160 40.0001Z" data-figma-gradient-fill="{&#34;type&#34;:&#34;GRADIENT_DIAMOND&#34;,&#34;stops&#34;:[{&#34;color&#34;:{&#34;r&#34;:1.0,&#34;g&#34;:0.67493587732315063,&#34;b&#34;:0.11346141993999481,&#34;a&#34;:1.0},&#34;position&#34;:0.0},{&#34;color&#34;:{&#34;r&#34;:0.57692307233810425,&#34;g&#34;:0.096153877675533295,&#34;b&#34;:0.0,&#34;a&#34;:1.0},&#34;position&#34;:0.53365385532379150},{&#34;color&#34;:{&#34;r&#34;:0.0,&#34;g&#34;:0.0,&#34;b&#34;:0.0,&#34;a&#34;:1.0},&#34;position&#34;:1.0}],&#34;stopsVar&#34;:[{&#34;color&#34;:{&#34;r&#34;:1.0,&#34;g&#34;:0.67493587732315063,&#34;b&#34;:0.11346141993999481,&#34;a&#34;:1.0},&#34;position&#34;:0.0},{&#34;color&#34;:{&#34;r&#34;:0.57692307233810425,&#34;g&#34;:0.096153877675533295,&#34;b&#34;:0.0,&#34;a&#34;:1.0},&#34;position&#34;:0.53365385532379150},{&#34;color&#34;:{&#34;r&#34;:0.0,&#34;g&#34;:0.0,&#34;b&#34;:0.0,&#34;a&#34;:1.0},&#34;position&#34;:1.0}],&#34;transform&#34;:{&#34;m00&#34;:-358.36877441406250,&#34;m01&#34;:597.21929931640625,&#34;m02&#34;:59.759128570556641,&#34;m10&#34;:-399.0,&#34;m11&#34;:-499.52163696289062,&#34;m12&#34;:638.26092529296875},&#34;opacity&#34;:1.0,&#34;blendMode&#34;:&#34;NORMAL&#34;,&#34;visible&#34;:true}"/>
<defs>
<clipPath id="paint0_diamond_125_1092_clip_path"><path d="M160 40.0001C160 167 13.1369 65.4956 0 110.292V189H277V0.00012207C255.043 65.8044 160 40.0001 160 40.0001Z"/></clipPath><linearGradient id="paint0_diamond_125_1092" x1="0" y1="0" x2="500" y2="500" gradientUnits="userSpaceOnUse">
<stop stop-color="#FFAC1D"/>
<stop offset="0.533654" stop-color="#931900"/>
<stop offset="1"/>
</linearGradient>
</defs>
</svg>
